HIERARCHY
ROOT Hips
{
    OFFSET 0.000000 0.000000 0.000000
    CHANNELS 6 Xposition Yposition Zposition Zrotation Xrotation Yrotation
    JOINT Spine
    {
        OFFSET -0.000000 14.517291 0.000000
        CHANNELS 3 Zrotation Xrotation Yrotation
        JOINT Spine1
        {
            OFFSET -0.000000 37.558300 0.000000
            CHANNELS 3 Zrotation Xrotation Yrotation
            JOINT Neck
            {
                OFFSET -0.000000 37.404057 3.400369
                CHANNELS 3 Zrotation Xrotation Yrotation
                JOINT Head
                {
                    OFFSET -0.000000 24.785618 -3.540803
                    CHANNELS 3 Zrotation Xrotation Yrotation
                    End Site
                    {
                        OFFSET -0.000000 35.408028 0.000000
                    }
                }
            }
            JOINT LeftShoulder
            {
                OFFSET 6.992933 33.973492 -0.192664
                CHANNELS 3 Zrotation Xrotation Yrotation
                JOINT LeftArm
                {
                    OFFSET 21.527611 0.000000 0.000000
                    CHANNELS 3 Zrotation Xrotation Yrotation
                    JOINT LeftForeArm
                    {
                        OFFSET 56.353916 0.000000 0.000000
                        CHANNELS 3 Zrotation Xrotation Yrotation
                        JOINT LeftHand
                        {
                            OFFSET 47.774071 0.000000 0.000000
                            CHANNELS 3 Zrotation Xrotation Yrotation
                            End Site
                            {
                                OFFSET 26.556021 0.000000 0.000000
                            }
                        }
                    }
                }
            }
            JOINT RightShoulder
            {
                OFFSET -7.065357 33.973492 -0.192664
                CHANNELS 3 Zrotation Xrotation Yrotation
                JOINT RightArm
                {
                    OFFSET -21.527611 0.000000 0.000000
                    CHANNELS 3 Zrotation Xrotation Yrotation
                    JOINT RightForeArm
                    {
                        OFFSET -56.353916 0.000000 0.000000
                        CHANNELS 3 Zrotation Xrotation Yrotation
                        JOINT RightHand
                        {
                            OFFSET -47.774071 0.000000 0.000000
                            CHANNELS 3 Zrotation Xrotation Yrotation
                            End Site
                            {
                                OFFSET -26.556021 0.000000 0.000000
                            }
                        }
                    }
                }
            }
        }
    }
    JOINT LeftUpLeg
    {
        OFFSET 17.704014 0.000000 0.000000
        CHANNELS 3 Zrotation Xrotation Yrotation
        JOINT LeftLeg
        {
            OFFSET -0.000000 -81.181816 0.000000
            CHANNELS 3 Zrotation Xrotation Yrotation
            JOINT LeftFoot
            {
                OFFSET -0.000000 -62.821102 0.000000
                CHANNELS 3 Zrotation Xrotation Yrotation
                JOINT LeftToeBase
                {
                    OFFSET -0.000000 -11.507608 26.556021
                    CHANNELS 3 Zrotation Xrotation Yrotation
                    End Site
                    {
                        OFFSET -0.000000 0.000000 7.081605
                    }
                }
            }
        }
    }
    JOINT RightUpLeg
    {
        OFFSET -17.704014 0.000000 0.000000
        CHANNELS 3 Zrotation Xrotation Yrotation
        JOINT RightLeg
        {
            OFFSET -0.000000 -81.181816 0.000000
            CHANNELS 3 Zrotation Xrotation Yrotation
            JOINT RightFoot
            {
                OFFSET -0.000000 -62.821102 0.000000
                CHANNELS 3 Zrotation Xrotation Yrotation
                JOINT RightToeBase
                {
                    OFFSET -0.000000 -11.507608 26.556021
                    CHANNELS 3 Zrotation Xrotation Yrotation
                    End Site
                    {
                        OFFSET -0.000000 0.000000 7.081605
                    }
                }
            }
        }
    }
}
MOTION
Frames:    5
Frame Time:    0.008333
-0.407242    157.973511    -28.792425    -0.374956    -1.998242    -23.532768    2.538052    -2.871574    4.414492    0.912216    5.757432    1.403229    7.313529    3.145063    7.817087    -1.893651    -4.730858    6.906006    -1.444189    6.542404    -8.426268    -45.510178    22.331337    -13.707854    -2.890754    -23.715410    -100.723877    4.900685    -27.405869    -13.979340    -4.580369    9.185626    -3.080986    39.521606    10.327068    66.932152    2.355117    -5.967397    108.255348    1.046353    -9.072206    13.719069    13.514432    -18.009462    -4.706375    -11.071920    13.605033    6.067651    -6.651279    5.776424    22.704535    0.000000    0.000000    0.000000    -7.902967    10.034876    -4.187960    6.467523    15.809801    -0.369992    1.624112    -20.952953    -24.498112    0.000000    0.000000    0.000000    
-0.407242    157.971329    -28.805441    -0.383035    -1.992408    -23.514017    2.537893    -2.873204    4.393473    0.880421    5.743453    1.397927    7.372018    3.097188    7.848556    -1.908527    -4.653797    6.927079    -1.477610    6.610348    -8.476313    -45.254280    22.495119    -14.529700    -2.497180    -24.539408    -100.308426    4.914846    -27.766777    -13.988815    -4.562699    9.176208    -3.068304    39.504608    10.348612    66.929985    2.336432    -5.998217    108.253021    1.053825    -9.076296    13.728344    13.515019    -18.022081    -4.714728    -11.058271    13.605072    6.054416    -6.642176    5.789624    22.707081    0.000000    0.000000    0.000000    -7.892916    10.024765    -4.183362    6.474410    15.830400    -0.339718    1.608579    -20.954762    -24.526503    0.000000    0.000000    0.000000    
-0.412074    157.970428    -28.819307    -0.395294    -1.981460    -23.494987    2.543656    -2.879685    4.374459    0.848805    5.726602    1.393222    7.413899    3.078317    7.868407    -1.901176    -4.617620    6.943315    -1.515441    6.666223    -8.559455    -44.993141    22.410091    -15.306023    -2.212915    -25.073202    -99.897049    4.893941    -27.967896    -14.043149    -4.541895    9.166532    -3.051128    39.477623    10.376034    66.914680    2.340364    -6.035195    108.267883    1.070140    -9.117412    13.728233    13.527452    -18.040424    -4.729576    -11.051502    13.613358    6.020262    -6.656018    5.788487    22.728109    0.000000    0.000000    0.000000    -7.871264    10.018200    -4.197282    6.477870    15.833678    -0.321756    1.601640    -20.957006    -24.558456    0.000000    0.000000    0.000000    
-0.413165    157.967514    -28.833914    -0.406096    -1.970858    -23.477772    2.559114    -2.883689    4.343564    0.797782    5.711362    1.385424    7.473636    3.054120    7.909341    -1.918823    -4.574017    6.974569    -1.558721    6.685330    -8.625001    -44.718208    22.441202    -16.053181    -1.827127    -25.719385    -99.448090    4.735265    -28.165531    -14.159736    -4.521230    9.175243    -3.021389    39.436367    10.402573    66.928810    2.302135    -6.108887    108.261925    1.085257    -9.136118    13.742458    13.534348    -18.058355    -4.735978    -11.040565    13.615246    6.027893    -6.659640    5.796040    22.717764    0.000000    0.000000    0.000000    -7.851930    10.006983    -4.189163    6.480102    15.842840    -0.349887    1.619753    -20.961081    -24.543833    0.000000    0.000000    0.000000    
-0.414193    157.967224    -28.846201    -0.413493    -1.963302    -23.457329    2.561138    -2.885046    4.327723    0.757976    5.695310    1.382264    7.560725    3.028163    7.939123    -1.973126    -4.534744    6.984037    -1.597118    6.708823    -8.713331    -44.466484    22.439514    -16.771713    -1.317515    -26.391087    -98.922173    4.203446    -28.232288    -14.433805    -4.494009    9.165794    -3.013155    39.417740    10.414066    66.914673    2.304595    -6.126216    108.273796    1.100310    -9.155341    13.759091    13.506898    -18.062733    -4.671947    -10.943077    13.621261    5.932044    -6.707152    5.795881    22.702522    0.000000    0.000000    0.000000    -7.836246    10.003394    -4.202931    6.487042    15.841318    -0.369734    1.613641    -20.959755    -24.544237    0.000000    0.000000    0.000000    
